{"title":"A.Nightmare.On.Elm.Street.2010.CAM.XviD-DUBBY","uid":5534834,"size":738115364,"categoryP":"video","categoryS":"movies","magnet":"?xt=urn:btih:2a5375c43cb1c59bcbef99467ab3a1e3f2386590&amp;dn=A.Nightmare.On.Elm.Street.2010.CAM.XviD-DUBBY&amp;tr=udp%3A%2F%2Ftracker.openbittorrent.com%3A80&amp;tr=udp%3A%2F%2Fopen.demonii.com%3A1337&amp;tr=udp%3A%2F%2Ftracker.coppersurfer.tk%3A6969&amp;tr=udp%3A%2F%2Fexodus.desync.com%3A6969","seeders":1,"leechers":0,"uploader":"Emery2010","files":2,"time":1273037036,"description":"A.Nightmare.On.Elm.Street.2010.CAM.XviD-DUBBY\n\nIMDB: http://www.imdb.com/title/tt1179056/\nGenre: Fantasy | Horror | Thriller \nRatings: 5.9/10   4,175 votes \n\nPlot: A re-imagining of the horror icon Freddy Krueger, \na serial-killer who wields a glove with four blades embedded \nin the fingers and kills people in their dreams, resulting in\ntheir real death in reality.\n\nVideo Source: Elm.Street.2010.CAM.A.Campbellsoup.Original.Release\nAudio Source: Elm.Street.2010.CAM.A.Campbellsoup.Original.Release\nNew Folder:   A.Nightmare.On.Elm.Street.2010.CAM.XviD-DUBBY\n\n\nWork Done: Ok this cam was a mess, resolution was way to small, mpeg format, \nhad a flicker...I did my best to fix it and i think i did a pretty\ndamn good job! anyway, filters added was a brightness/contrast, sharpen,\nand a deflicker. Also thought it had too much orange and yellow so i \nadded a little bit of red. Anyway, its first cam, so dont expect the \nbest quality but i think it turned out pretty good. Audio isnt\nto bad either, for cam audio anyway thanks to Campbellsoup for the \nsource. Keep em comin!! Video still has a flicker in some spots, couldnt\nremove it all but i did my best, i will defently do a V2 if we ever get a \nbetter source.\n\nVideo\nID                               : 0\nFormat                           : MPEG-4 Visual\nFormat profile                   : Advanced Simple@L5\nFormat settings, BVOP            : Yes\nFormat settings, QPel            : No\nFormat settings, GMC             : No warppoints\nFormat settings, Matrix          : Default (H.263)\nMuxing mode                      : Packed bitstream\nCodec ID                         : XVID\nCodec ID/Hint                    : XviD\nDuration                         : 1h 32mn\nBit rate                         : 924 Kbps\nWidth                            : 640 pixels\nHeight                           : 272 pixels\nDisplay aspect ratio             : 2.35:1\nFrame rate                       : 23.976 fps\nResolution                       : 8 bits\nColorimetry                      : 4:2:0\nScan type                        : Progressive\nBits/(Pixel*Frame)               : 0.221\nStream size                      : 613 MiB (87%)\nWriting library                  : XviD 1.2.1 (UTC 2008-12-04)\n\nAudio\nID                               : 1\nFormat                           : MPEG Audio\nFormat version                   : Version 1\nFormat profile                   : Layer 3\nMode                             : Joint stereo\nCodec ID                         : 55\nCodec ID/Hint                    : MP3\nDuration                         : 1h 32mn\nBit rate mode                    : Constant\nBit rate                         : 128 Kbps\nChannel(s)                       : 2 channels\nSampling rate                    : 48.0 KHz\nStream size                      : 84.9 MiB (12%)\nAlignment                        : Aligned on interleaves\nInterleave, duration             : 42 ms (1.00 video frame)\nInterleave, preload duration     : 504 ms\n\n\n\nGreets out to my friends at extratorrent, Noir, IMAGiNE, Campbellsoup,\nbadass, sam, and wrath and many others past and present.\n\nPlease note that i am looking for Cam sources, video and audio. Please\ncontact me if you have anything usefull thanks.","torrent":{"xt":"urn:btih:2a5375c43cb1c59bcbef99467ab3a1e3f2386590","amp;dn":"A.Nightmare.On.Elm.Street.2010.CAM.XviD-DUBBY","amp;tr":["udp%3A%2F%2Ftracker.openbittorrent.com%3A80","udp%3A%2F%2Fopen.demonii.com%3A1337","udp%3A%2F%2Ftracker.coppersurfer.tk%3A6969","udp%3A%2F%2Fexodus.desync.com%3A6969"],"infoHash":"2a5375c43cb1c59bcbef99467ab3a1e3f2386590","infoHashBuffer":{"type":"Buffer","data":[42,83,117,196,60,177,197,155,203,239,153,70,122,179,161,227,242,56,101,144]},"announce":[],"urlList":[]}}